<svg width="528" height="586" viewBox="0 0 528 586" fill="current" xmlns="http://www.w3.org/2000/svg">
<path d="M267.411 0H265.856C187.402 8.56173 115.553 47.6897 66.0358 108.82C16.5186 169.95 -6.63308 248.102 1.64805 326.171C9.75647 393.025 40.4806 455.15 88.775 502.342C137.069 549.535 200.063 578.99 267.411 585.871H300.048C342.265 586.065 384.044 577.348 422.623 560.293C461.202 543.239 495.703 518.236 523.848 486.937C525.676 484.907 526.865 482.388 527.266 479.692C527.667 476.995 527.263 474.241 526.104 471.772C524.946 469.302 523.083 467.225 520.748 465.799C518.413 464.373 515.708 463.66 512.969 463.75H483.44C346.673 456.021 225.448 333.9 220.786 199.412C219.177 136.086 240.091 74.2258 279.844 24.7333C281.576 22.4367 282.63 19.7058 282.889 16.8466C283.149 13.9874 282.602 11.1129 281.311 8.54516C280.021 5.97744 278.036 3.81796 275.581 2.30869C273.126 0.799423 270.297 0 267.411 0Z" />
</svg>
